<svg xmlns="http://www.w3.org/2000/svg" xmlns:xlink="http://www.w3.org/1999/xlink" width="192" zoomAndPan="magnify" viewBox="0 0 144 44.999999" height="60" preserveAspectRatio="xMidYMid meet" version="1.0"><defs><g/><clipPath id="a57f49f8bb"><path d="M 0.210938 12.265625 L 97 12.265625 L 97 26 L 0.210938 26 Z M 0.210938 12.265625 " clip-rule="nonzero"/></clipPath><clipPath id="5f54e0b51c"><path d="M 65 24 L 97.5 24 L 97.5 31.765625 L 65 31.765625 Z M 65 24 " clip-rule="nonzero"/></clipPath></defs><g clip-path="url(#a57f49f8bb)"><path fill="#f7f8fd" d="M 88.738281 22.058594 C 87.539062 21.832031 86.347656 21.535156 85.179688 21.175781 C 84.011719 20.808594 82.855469 20.390625 81.714844 19.925781 C 80.574219 19.464844 79.4375 18.96875 78.300781 18.453125 L 74.863281 16.886719 C 73.703125 16.363281 72.523438 15.847656 71.304688 15.355469 C 71 15.234375 70.699219 15.113281 70.386719 14.996094 L 69.921875 14.820312 L 69.453125 14.648438 C 69.140625 14.535156 68.820312 14.429688 68.503906 14.320312 C 68.34375 14.265625 68.183594 14.214844 68.023438 14.160156 C 67.859375 14.109375 67.703125 14.054688 67.539062 14.007812 C 67.210938 13.910156 66.886719 13.808594 66.554688 13.71875 C 66.390625 13.675781 66.226562 13.625 66.058594 13.582031 L 65.554688 13.457031 C 65.222656 13.375 64.886719 13.289062 64.546875 13.21875 L 64.039062 13.109375 C 63.871094 13.074219 63.703125 13.035156 63.53125 13.007812 L 62.503906 12.824219 L 61.46875 12.671875 C 61.382812 12.660156 61.296875 12.644531 61.210938 12.632812 L 60.953125 12.605469 L 60.429688 12.542969 C 60.257812 12.523438 60.085938 12.5 59.910156 12.484375 L 59.390625 12.441406 C 58 12.320312 56.605469 12.261719 55.214844 12.277344 C 53.828125 12.289062 52.441406 12.359375 51.074219 12.480469 C 48.332031 12.726562 45.652344 13.1875 43.046875 13.785156 C 40.441406 14.390625 37.910156 15.136719 35.460938 15.992188 C 34.234375 16.421875 33.023438 16.871094 31.839844 17.351562 C 30.652344 17.832031 29.484375 18.332031 28.335938 18.855469 C 30.792969 18.039062 33.269531 17.261719 35.792969 16.597656 C 38.308594 15.925781 40.867188 15.359375 43.453125 14.914062 C 44.742188 14.695312 46.042969 14.515625 47.347656 14.371094 C 48 14.292969 48.652344 14.238281 49.304688 14.183594 L 50.285156 14.117188 C 50.609375 14.09375 50.9375 14.082031 51.265625 14.066406 C 52.570312 14.011719 53.875 14 55.171875 14.046875 L 56.144531 14.089844 C 56.46875 14.109375 56.789062 14.136719 57.109375 14.15625 L 57.351562 14.175781 L 57.59375 14.199219 L 58.074219 14.246094 C 58.234375 14.261719 58.394531 14.273438 58.550781 14.292969 L 59.027344 14.351562 L 59.503906 14.414062 C 59.664062 14.429688 59.820312 14.460938 59.980469 14.484375 L 60.449219 14.554688 L 60.6875 14.59375 C 60.765625 14.605469 60.84375 14.621094 60.921875 14.632812 L 61.855469 14.808594 L 62.777344 15.007812 C 62.929688 15.039062 63.082031 15.082031 63.230469 15.121094 L 63.6875 15.234375 C 63.992188 15.304688 64.289062 15.394531 64.585938 15.476562 L 65.035156 15.605469 C 65.183594 15.648438 65.328125 15.695312 65.476562 15.742188 C 65.769531 15.832031 66.058594 15.933594 66.351562 16.03125 C 68.683594 16.835938 70.910156 17.859375 73.144531 18.9375 C 75.378906 20.015625 77.628906 21.152344 80.039062 22.179688 C 80.5 22.375 80.96875 22.566406 81.445312 22.75 C 80.015625 22.859375 78.582031 22.941406 77.144531 23.003906 L 75.777344 23.054688 L 74.410156 23.085938 C 73.957031 23.097656 73.5 23.097656 73.042969 23.105469 L 72.359375 23.113281 C 72.132812 23.113281 71.902344 23.113281 71.675781 23.113281 C 69.847656 23.121094 68.015625 23.082031 66.183594 23.027344 C 64.351562 22.976562 62.519531 22.890625 60.683594 22.789062 C 58.847656 22.6875 57.011719 22.570312 55.171875 22.433594 C 51.496094 22.171875 47.816406 21.855469 44.125 21.546875 C 40.433594 21.238281 36.734375 20.925781 33.015625 20.675781 L 31.621094 20.585938 C 31.15625 20.554688 30.691406 20.523438 30.226562 20.496094 C 29.292969 20.441406 28.359375 20.394531 27.421875 20.351562 C 26.957031 20.332031 26.484375 20.316406 26.019531 20.296875 L 24.609375 20.25 C 24.140625 20.242188 23.671875 20.234375 23.199219 20.226562 L 22.492188 20.222656 C 22.257812 20.21875 22.023438 20.21875 21.785156 20.222656 C 21.316406 20.226562 20.84375 20.222656 20.375 20.234375 L 19.667969 20.25 C 19.429688 20.253906 19.195312 20.265625 18.960938 20.273438 L 18.253906 20.300781 L 17.546875 20.335938 C 17.074219 20.355469 16.605469 20.394531 16.136719 20.425781 C 14.257812 20.5625 12.386719 20.789062 10.546875 21.109375 C 8.710938 21.4375 6.910156 21.867188 5.179688 22.417969 C 3.453125 22.964844 1.792969 23.625 0.261719 24.414062 C 3.574219 23.144531 7.144531 22.351562 10.765625 21.957031 C 14.394531 21.554688 18.070312 21.546875 21.726562 21.710938 C 21.957031 21.722656 22.1875 21.734375 22.414062 21.746094 L 23.101562 21.785156 C 23.558594 21.8125 24.015625 21.847656 24.472656 21.875 L 25.84375 21.976562 C 26.300781 22.015625 26.757812 22.050781 27.21875 22.09375 C 28.132812 22.171875 29.046875 22.257812 29.964844 22.351562 C 30.878906 22.441406 31.796875 22.535156 32.710938 22.632812 C 36.378906 23.019531 40.042969 23.441406 43.722656 23.847656 C 51.078125 24.664062 58.496094 25.425781 66.015625 25.714844 C 69.777344 25.863281 73.558594 25.882812 77.34375 25.726562 C 79.238281 25.644531 81.128906 25.527344 83.015625 25.351562 C 84.902344 25.171875 86.78125 24.945312 88.648438 24.667969 L 96.445312 23.5 Z M 88.738281 22.058594 " fill-opacity="1" fill-rule="nonzero"/></g><g clip-path="url(#5f54e0b51c)"><path fill="#ff1616" d="M 68.050781 30.003906 C 70.957031 30.636719 73.902344 31.105469 76.863281 31.375 C 80.578125 31.714844 84.363281 31.761719 88.054688 31.167969 C 89.851562 30.878906 91.628906 30.433594 93.3125 29.738281 C 94.691406 29.167969 97.304688 28.246094 97.550781 26.535156 C 97.640625 25.929688 97.664062 25.011719 96.898438 24.539062 C 95.914062 23.929688 94.59375 24.546875 93.667969 24.894531 C 92.566406 25.3125 91.480469 25.753906 90.292969 26.078125 C 88.804688 26.484375 87.269531 26.820312 85.714844 27.121094 C 83.96875 27.457031 82.183594 27.761719 80.386719 27.988281 C 81.273438 28.136719 82.75 28.332031 83.546875 28.433594 C 84.5 28.550781 85.460938 28.65625 86.425781 28.738281 C 87.441406 28.824219 88.488281 28.890625 89.539062 28.925781 C 84.867188 29.859375 76.917969 30.675781 65.355469 29.355469 C 66.265625 29.585938 67.171875 29.8125 68.050781 30.003906 Z M 68.050781 30.003906 " fill-opacity="1" fill-rule="nonzero"/></g><g fill="#ff1616" fill-opacity="1"><g transform="translate(102.216199, 13.413485)"><g><path d="M 4.722656 -4.125 L 2.207031 -4.125 C 2.082031 -4.125 1.921875 -4.175781 1.921875 -4.589844 L 1.921875 -5.207031 C 1.921875 -5.359375 1.945312 -5.476562 1.988281 -5.5625 C 2.019531 -5.609375 2.070312 -5.671875 2.214844 -5.671875 L 5.628906 -5.671875 C 5.695312 -5.671875 5.863281 -5.695312 5.863281 -5.957031 L 5.863281 -6.625 C 5.863281 -6.886719 5.695312 -6.910156 5.628906 -6.910156 L 2.011719 -6.910156 C 1.550781 -6.910156 1.214844 -6.761719 1 -6.449219 C 0.78125 -6.148438 0.671875 -5.746094 0.671875 -5.257812 L 0.671875 -4.621094 C 0.671875 -4.042969 0.789062 -3.574219 1 -3.28125 C 1.257812 -2.9375 1.644531 -2.886719 1.996094 -2.886719 L 4.511719 -2.886719 C 4.636719 -2.886719 4.804688 -2.835938 4.804688 -2.425781 L 4.804688 -1.703125 C 4.804688 -1.550781 4.78125 -1.433594 4.730469 -1.351562 C 4.695312 -1.300781 4.648438 -1.242188 4.503906 -1.242188 L 0.921875 -1.242188 C 0.847656 -1.242188 0.679688 -1.214844 0.679688 -0.957031 L 0.679688 -0.285156 C 0.679688 -0.0234375 0.847656 0 0.921875 0 L 4.707031 0 C 5.167969 0 5.511719 -0.160156 5.730469 -0.46875 C 5.9375 -0.773438 6.046875 -1.164062 6.046875 -1.652344 L 6.046875 -2.390625 C 6.046875 -2.9375 5.9375 -3.363281 5.71875 -3.664062 C 5.492188 -3.96875 5.160156 -4.125 4.722656 -4.125 Z M 4.722656 -4.125 "/></g></g></g><g fill="#f7f8fd" fill-opacity="1"><g transform="translate(108.932792, 13.413485)"><g><path d="M 7.675781 -6.910156 L 6.917969 -6.910156 C 6.800781 -6.910156 6.710938 -6.902344 6.625 -6.878906 C 6.542969 -6.851562 6.46875 -6.8125 6.398438 -6.753906 C 6.339844 -6.683594 6.28125 -6.609375 6.230469 -6.507812 C 6.179688 -6.40625 6.140625 -6.28125 6.089844 -6.121094 L 4.605469 -2.414062 C 4.597656 -2.382812 4.589844 -2.382812 4.578125 -2.382812 L 4.496094 -2.382812 C 4.496094 -2.382812 4.480469 -2.382812 4.46875 -2.414062 L 2.996094 -6.121094 C 2.945312 -6.28125 2.894531 -6.40625 2.851562 -6.507812 C 2.800781 -6.609375 2.742188 -6.683594 2.683594 -6.753906 C 2.617188 -6.8125 2.53125 -6.851562 2.449219 -6.878906 C 2.367188 -6.902344 2.265625 -6.910156 2.15625 -6.910156 L 1.382812 -6.910156 C 1.097656 -6.910156 0.90625 -6.820312 0.804688 -6.644531 C 0.714844 -6.484375 0.671875 -6.214844 0.671875 -5.828125 L 0.671875 -0.285156 C 0.671875 -0.0234375 0.839844 0.0078125 0.914062 0.0078125 L 1.636719 0.0078125 C 1.710938 0.0078125 1.871094 -0.0234375 1.871094 -0.285156 L 1.871094 -5.324219 C 1.871094 -5.335938 1.871094 -5.34375 1.871094 -5.34375 L 1.914062 -5.34375 C 1.921875 -5.34375 1.929688 -5.34375 1.9375 -5.316406 L 3.371094 -1.769531 C 3.429688 -1.59375 3.488281 -1.441406 3.546875 -1.316406 C 3.613281 -1.191406 3.683594 -1.089844 3.75 -1.007812 C 3.832031 -0.921875 3.917969 -0.855469 4.019531 -0.820312 C 4.117188 -0.789062 4.226562 -0.773438 4.351562 -0.773438 L 4.695312 -0.773438 C 4.824219 -0.773438 4.941406 -0.789062 5.03125 -0.820312 C 5.132812 -0.855469 5.226562 -0.921875 5.300781 -1.007812 C 5.367188 -1.089844 5.445312 -1.191406 5.503906 -1.316406 C 5.5625 -1.441406 5.621094 -1.59375 5.679688 -1.769531 L 7.121094 -5.324219 C 7.121094 -5.34375 7.128906 -5.34375 7.136719 -5.34375 L 7.179688 -5.34375 C 7.179688 -5.34375 7.179688 -5.335938 7.179688 -5.324219 L 7.179688 -0.285156 C 7.179688 -0.0234375 7.347656 0.0078125 7.414062 0.0078125 L 8.136719 0.0078125 C 8.210938 0.0078125 8.378906 -0.0234375 8.378906 -0.285156 L 8.378906 -5.828125 C 8.378906 -6.214844 8.335938 -6.484375 8.246094 -6.644531 C 8.144531 -6.820312 7.953125 -6.910156 7.675781 -6.910156 Z M 7.675781 -6.910156 "/></g></g></g><g fill="#f7f8fd" fill-opacity="1"><g transform="translate(117.983026, 13.413485)"><g><path d="M 5.167969 -6.132812 C 5.148438 -6.171875 5.132812 -6.222656 5.117188 -6.257812 C 4.980469 -6.691406 4.578125 -7.003906 4.117188 -7.003906 C 3.910156 -7.003906 3.707031 -6.945312 3.539062 -6.828125 C 3.488281 -6.800781 3.449219 -6.769531 3.414062 -6.742188 C 3.289062 -6.632812 3.160156 -6.433594 3.042969 -6.132812 L 0.703125 -0.320312 C 0.679688 -0.242188 0.671875 -0.167969 0.6875 -0.117188 C 0.695312 -0.0664062 0.738281 0.0078125 0.871094 0.0078125 L 1.796875 0.0078125 C 1.902344 0.0078125 1.988281 -0.0585938 2.03125 -0.167969 L 2.507812 -1.367188 L 4.34375 -1.367188 C 4.4375 -1.367188 4.519531 -1.410156 4.5625 -1.484375 C 4.613281 -1.550781 4.621094 -1.644531 4.597656 -1.726562 L 4.292969 -2.472656 C 4.253906 -2.574219 4.160156 -2.640625 4.050781 -2.640625 L 3.011719 -2.640625 L 4.085938 -5.359375 C 4.09375 -5.375 4.101562 -5.386719 4.101562 -5.386719 L 4.136719 -5.386719 C 4.136719 -5.386719 4.136719 -5.386719 4.144531 -5.367188 L 6.222656 -0.175781 C 6.265625 -0.0585938 6.347656 0.0078125 6.46875 0.0078125 L 7.363281 0.0078125 C 7.5 0.0078125 7.53125 -0.0742188 7.546875 -0.117188 C 7.566406 -0.167969 7.558594 -0.242188 7.523438 -0.320312 Z M 5.167969 -6.132812 "/></g></g></g><g fill="#f7f8fd" fill-opacity="1"><g transform="translate(126.219667, 13.413485)"><g><path d="M 6.390625 -4.90625 C 6.390625 -4.898438 6.390625 -4.890625 6.390625 -4.882812 C 6.390625 -4.875 6.390625 -4.863281 6.390625 -4.855469 Z M 6.550781 -0.359375 L 5.082031 -2.875 C 5.492188 -2.925781 5.8125 -3.101562 6.023438 -3.386719 C 6.257812 -3.734375 6.382812 -4.226562 6.390625 -4.882812 C 6.382812 -5.535156 6.257812 -6.03125 6.023438 -6.375 C 5.769531 -6.734375 5.351562 -6.910156 4.78125 -6.910156 L 0.914062 -6.910156 C 0.839844 -6.910156 0.671875 -6.886719 0.671875 -6.617188 L 0.671875 -5.957031 C 0.671875 -5.695312 0.839844 -5.671875 0.914062 -5.671875 L 4.5625 -5.671875 C 4.78125 -5.671875 4.921875 -5.609375 5.007812 -5.484375 C 5.101562 -5.359375 5.140625 -5.160156 5.140625 -4.882812 C 5.140625 -4.605469 5.101562 -4.402344 5.007812 -4.277344 C 4.921875 -4.152344 4.78125 -4.09375 4.5625 -4.09375 L 0.914062 -4.09375 C 0.839844 -4.09375 0.671875 -4.066406 0.671875 -3.808594 L 0.671875 -0.285156 C 0.671875 -0.0234375 0.839844 0.0078125 0.914062 0.0078125 L 1.675781 0.0078125 C 1.753906 0.0078125 1.914062 -0.0234375 1.914062 -0.285156 L 1.914062 -2.851562 L 3.683594 -2.851562 L 5.199219 -0.160156 C 5.234375 -0.109375 5.257812 -0.0664062 5.292969 -0.0429688 C 5.335938 -0.0078125 5.394531 0.0078125 5.46875 0.0078125 L 6.390625 0.0078125 C 6.492188 0.0078125 6.566406 -0.0585938 6.585938 -0.160156 C 6.59375 -0.242188 6.585938 -0.308594 6.550781 -0.359375 Z M 6.550781 -0.359375 "/></g></g></g><g fill="#f7f8fd" fill-opacity="1"><g transform="translate(133.483341, 13.413485)"><g><path d="M 6.46875 -6.910156 L 0.914062 -6.910156 C 0.839844 -6.910156 0.671875 -6.886719 0.671875 -6.625 L 0.671875 -5.972656 C 0.671875 -5.695312 0.839844 -5.671875 0.914062 -5.671875 L 3.070312 -5.671875 L 3.070312 -0.285156 C 3.070312 -0.0234375 3.238281 0 3.304688 0 L 4.078125 0 C 4.152344 0 4.3125 -0.0234375 4.3125 -0.285156 L 4.3125 -5.671875 L 6.46875 -5.671875 C 6.542969 -5.671875 6.710938 -5.695312 6.710938 -5.972656 L 6.710938 -6.625 C 6.710938 -6.886719 6.542969 -6.910156 6.46875 -6.910156 Z M 6.46875 -6.910156 "/></g></g></g><g fill="#f7f8fd" fill-opacity="1"><g transform="translate(140.855723, 13.413485)"><g/></g></g><g fill="#ff1616" fill-opacity="1"><g transform="translate(102.216199, 24.596886)"><g><path d="M 4.78125 -6.910156 L 0.90625 -6.910156 C 0.839844 -6.910156 0.671875 -6.886719 0.671875 -6.617188 L 0.671875 -5.957031 C 0.671875 -5.695312 0.839844 -5.671875 0.90625 -5.671875 L 4.5625 -5.671875 C 4.773438 -5.671875 4.921875 -5.609375 5.007812 -5.484375 C 5.101562 -5.359375 5.140625 -5.160156 5.140625 -4.882812 C 5.140625 -4.605469 5.101562 -4.402344 5.007812 -4.277344 C 4.921875 -4.152344 4.773438 -4.09375 4.5625 -4.09375 L 0.90625 -4.09375 C 0.839844 -4.09375 0.671875 -4.066406 0.671875 -3.808594 L 0.671875 -0.285156 C 0.671875 -0.0234375 0.839844 0.0078125 0.90625 0.0078125 L 1.675781 0.0078125 C 1.746094 0.0078125 1.914062 -0.0234375 1.914062 -0.285156 L 1.914062 -2.851562 L 4.78125 -2.859375 C 5.351562 -2.859375 5.761719 -3.035156 6.015625 -3.386719 C 6.265625 -3.742188 6.382812 -4.242188 6.382812 -4.90625 L 6.382812 -4.855469 C 6.382812 -5.527344 6.265625 -6.03125 6.015625 -6.375 C 5.761719 -6.734375 5.351562 -6.910156 4.78125 -6.910156 Z M 4.78125 -6.910156 "/></g></g></g><g fill="#f7f8fd" fill-opacity="1"><g transform="translate(109.260431, 24.596886)"><g><path d="M 6.382812 -6.300781 C 6.214844 -6.507812 5.996094 -6.667969 5.730469 -6.769531 C 5.46875 -6.859375 5.148438 -6.910156 4.78125 -6.910156 L 2.734375 -6.910156 C 2.367188 -6.910156 2.054688 -6.859375 1.796875 -6.769531 C 1.527344 -6.667969 1.308594 -6.507812 1.140625 -6.300781 C 0.980469 -6.089844 0.855469 -5.8125 0.78125 -5.476562 C 0.703125 -5.148438 0.671875 -4.753906 0.671875 -4.285156 L 0.671875 -2.625 C 0.671875 -2.15625 0.703125 -1.753906 0.78125 -1.425781 C 0.855469 -1.089844 0.980469 -0.8125 1.140625 -0.605469 C 1.308594 -0.386719 1.527344 -0.226562 1.796875 -0.132812 C 2.046875 -0.0429688 2.367188 0.0078125 2.734375 0.0078125 L 4.78125 0.0078125 C 5.148438 0.0078125 5.46875 -0.0429688 5.730469 -0.132812 C 5.996094 -0.226562 6.214844 -0.386719 6.382812 -0.59375 C 6.550781 -0.8125 6.667969 -1.089844 6.742188 -1.425781 C 6.8125 -1.753906 6.851562 -2.15625 6.851562 -2.625 L 6.851562 -4.285156 C 6.851562 -4.746094 6.8125 -5.148438 6.742188 -5.476562 C 6.667969 -5.8125 6.550781 -6.089844 6.382812 -6.300781 Z M 5.601562 -4.429688 L 5.601562 -2.472656 C 5.601562 -2.230469 5.59375 -2.019531 5.5625 -1.855469 C 5.535156 -1.703125 5.484375 -1.570312 5.417969 -1.484375 C 5.359375 -1.390625 5.277344 -1.332031 5.167969 -1.300781 C 5.058594 -1.257812 4.914062 -1.242188 4.738281 -1.242188 L 2.777344 -1.242188 C 2.601562 -1.242188 2.457031 -1.257812 2.347656 -1.300781 C 2.238281 -1.332031 2.15625 -1.390625 2.097656 -1.484375 C 2.03125 -1.570312 1.988281 -1.703125 1.953125 -1.855469 C 1.929688 -2.019531 1.914062 -2.230469 1.914062 -2.472656 L 1.914062 -4.429688 C 1.914062 -4.671875 1.929688 -4.882812 1.953125 -5.050781 C 1.988281 -5.207031 2.03125 -5.335938 2.097656 -5.425781 C 2.15625 -5.511719 2.238281 -5.570312 2.347656 -5.609375 C 2.457031 -5.644531 2.601562 -5.671875 2.777344 -5.671875 L 4.738281 -5.671875 C 4.914062 -5.671875 5.058594 -5.644531 5.167969 -5.609375 C 5.277344 -5.570312 5.359375 -5.511719 5.417969 -5.425781 C 5.484375 -5.335938 5.535156 -5.207031 5.5625 -5.050781 C 5.59375 -4.882812 5.601562 -4.671875 5.601562 -4.429688 Z M 5.601562 -4.429688 "/></g></g></g><g fill="#f7f8fd" fill-opacity="1"><g transform="translate(116.784116, 24.596886)"><g><path d="M 10.804688 -7.011719 L 9.878906 -7.011719 C 9.773438 -7.011719 9.6875 -6.945312 9.636719 -6.828125 L 8.050781 -1.796875 C 8.042969 -1.777344 8.042969 -1.777344 8.042969 -1.777344 L 8.011719 -1.769531 C 8.011719 -1.769531 8 -1.777344 8 -1.785156 L 6.535156 -6.828125 C 6.492188 -6.945312 6.40625 -7.011719 6.300781 -7.011719 L 5.351562 -7.011719 C 5.242188 -7.011719 5.160156 -6.945312 5.109375 -6.828125 L 3.523438 -1.796875 C 3.515625 -1.777344 3.515625 -1.777344 3.515625 -1.777344 L 3.480469 -1.769531 C 3.480469 -1.769531 3.472656 -1.777344 3.472656 -1.785156 L 2.003906 -6.828125 C 1.960938 -6.945312 1.878906 -7.011719 1.761719 -7.011719 L 0.863281 -7.011719 C 0.730469 -7.011719 0.695312 -6.929688 0.6875 -6.886719 C 0.671875 -6.828125 0.671875 -6.761719 0.703125 -6.683594 L 2.441406 -0.871094 C 2.457031 -0.832031 2.484375 -0.78125 2.5 -0.746094 C 2.625 -0.308594 3.035156 0 3.496094 0 C 3.707031 0 3.910156 -0.0585938 4.078125 -0.175781 C 4.125 -0.203125 4.160156 -0.234375 4.203125 -0.261719 C 4.320312 -0.367188 4.445312 -0.570312 4.570312 -0.878906 L 5.8125 -4.738281 L 6.96875 -0.871094 C 6.988281 -0.832031 7.011719 -0.78125 7.027344 -0.746094 C 7.15625 -0.308594 7.566406 0 8.027344 0 C 8.238281 0 8.4375 -0.0585938 8.605469 -0.175781 C 8.65625 -0.203125 8.699219 -0.234375 8.730469 -0.261719 C 8.855469 -0.367188 8.976562 -0.570312 9.101562 -0.878906 L 10.972656 -6.683594 C 10.996094 -6.761719 11.003906 -6.828125 10.988281 -6.886719 C 10.980469 -6.9375 10.9375 -7.011719 10.804688 -7.011719 Z M 10.804688 -7.011719 "/></g></g></g><g fill="#f7f8fd" fill-opacity="1"><g transform="translate(128.459672, 24.596886)"><g><path d="M 5.710938 -1.5 L 2.757812 -1.5 C 2.582031 -1.5 2.441406 -1.527344 2.324219 -1.558594 C 2.214844 -1.601562 2.140625 -1.660156 2.070312 -1.746094 C 2.003906 -1.835938 1.953125 -1.960938 1.929688 -2.121094 C 1.921875 -2.164062 1.921875 -2.222656 1.914062 -2.265625 C 1.914062 -2.265625 1.921875 -2.867188 1.929688 -2.867188 L 5.679688 -2.867188 C 5.746094 -2.867188 5.914062 -2.902344 5.914062 -3.160156 L 5.914062 -3.824219 C 5.914062 -4.085938 5.746094 -4.109375 5.679688 -4.109375 L 1.351562 -4.101562 C 1.105469 -4.085938 0.898438 -3.957031 0.78125 -3.75 C 0.738281 -3.683594 0.703125 -3.613281 0.6875 -3.539062 L 0.671875 -2.484375 L 0.671875 -2.441406 C 0.679688 -2.046875 0.722656 -1.710938 0.78125 -1.433594 C 0.855469 -1.097656 0.980469 -0.820312 1.140625 -0.613281 C 1.308594 -0.394531 1.527344 -0.242188 1.796875 -0.152344 C 2.054688 -0.0507812 2.367188 -0.0078125 2.734375 -0.0078125 L 5.710938 -0.0078125 C 5.789062 -0.0078125 5.957031 -0.0351562 5.957031 -0.292969 L 5.957031 -1.214844 C 5.957031 -1.476562 5.789062 -1.5 5.710938 -1.5 Z M 5.71875 -6.929688 L 0.898438 -6.929688 C 0.832031 -6.929688 0.671875 -6.894531 0.671875 -6.625 L 0.671875 -5.972656 C 0.671875 -5.710938 0.832031 -5.6875 0.898438 -5.6875 L 5.71875 -5.679688 C 5.789062 -5.679688 5.957031 -5.710938 5.957031 -5.972656 L 5.957031 -6.632812 C 5.957031 -6.894531 5.789062 -6.929688 5.71875 -6.929688 Z M 5.71875 -6.929688 "/></g></g></g><g fill="#f7f8fd" fill-opacity="1"><g transform="translate(135.08589, 24.596886)"><g><path d="M 6.390625 -4.90625 C 6.390625 -4.898438 6.390625 -4.890625 6.390625 -4.882812 C 6.390625 -4.875 6.390625 -4.863281 6.390625 -4.855469 Z M 6.550781 -0.359375 L 5.082031 -2.875 C 5.492188 -2.925781 5.8125 -3.101562 6.023438 -3.386719 C 6.257812 -3.734375 6.382812 -4.226562 6.390625 -4.882812 C 6.382812 -5.535156 6.257812 -6.03125 6.023438 -6.375 C 5.769531 -6.734375 5.351562 -6.910156 4.78125 -6.910156 L 0.914062 -6.910156 C 0.839844 -6.910156 0.671875 -6.886719 0.671875 -6.617188 L 0.671875 -5.957031 C 0.671875 -5.695312 0.839844 -5.671875 0.914062 -5.671875 L 4.5625 -5.671875 C 4.78125 -5.671875 4.921875 -5.609375 5.007812 -5.484375 C 5.101562 -5.359375 5.140625 -5.160156 5.140625 -4.882812 C 5.140625 -4.605469 5.101562 -4.402344 5.007812 -4.277344 C 4.921875 -4.152344 4.78125 -4.09375 4.5625 -4.09375 L 0.914062 -4.09375 C 0.839844 -4.09375 0.671875 -4.066406 0.671875 -3.808594 L 0.671875 -0.285156 C 0.671875 -0.0234375 0.839844 0.0078125 0.914062 0.0078125 L 1.675781 0.0078125 C 1.753906 0.0078125 1.914062 -0.0234375 1.914062 -0.285156 L 1.914062 -2.851562 L 3.683594 -2.851562 L 5.199219 -0.160156 C 5.234375 -0.109375 5.257812 -0.0664062 5.292969 -0.0429688 C 5.335938 -0.0078125 5.394531 0.0078125 5.46875 0.0078125 L 6.390625 0.0078125 C 6.492188 0.0078125 6.566406 -0.0585938 6.585938 -0.160156 C 6.59375 -0.242188 6.585938 -0.308594 6.550781 -0.359375 Z M 6.550781 -0.359375 "/></g></g></g><g fill="#f7f8fd" fill-opacity="1"><g transform="translate(142.341019, 24.596886)"><g/></g></g><g fill="#ff1616" fill-opacity="1"><g transform="translate(102.216199, 35.780287)"><g><path d="M 5.167969 -6.132812 C 5.148438 -6.171875 5.132812 -6.222656 5.117188 -6.257812 C 4.980469 -6.691406 4.578125 -7.003906 4.117188 -7.003906 C 3.910156 -7.003906 3.707031 -6.945312 3.539062 -6.828125 C 3.488281 -6.800781 3.449219 -6.769531 3.414062 -6.742188 C 3.289062 -6.632812 3.160156 -6.433594 3.042969 -6.132812 L 0.703125 -0.320312 C 0.679688 -0.242188 0.671875 -0.167969 0.6875 -0.117188 C 0.695312 -0.0664062 0.738281 0.0078125 0.871094 0.0078125 L 1.796875 0.0078125 C 1.902344 0.0078125 1.988281 -0.0585938 2.03125 -0.167969 L 2.507812 -1.367188 L 4.34375 -1.367188 C 4.4375 -1.367188 4.519531 -1.410156 4.5625 -1.484375 C 4.613281 -1.550781 4.621094 -1.644531 4.597656 -1.726562 L 4.292969 -2.472656 C 4.253906 -2.574219 4.160156 -2.640625 4.050781 -2.640625 L 3.011719 -2.640625 L 4.085938 -5.359375 C 4.09375 -5.375 4.101562 -5.386719 4.101562 -5.386719 L 4.136719 -5.386719 C 4.136719 -5.386719 4.136719 -5.386719 4.144531 -5.367188 L 6.222656 -0.175781 C 6.265625 -0.0585938 6.347656 0.0078125 6.46875 0.0078125 L 7.363281 0.0078125 C 7.5 0.0078125 7.53125 -0.0742188 7.546875 -0.117188 C 7.566406 -0.167969 7.558594 -0.242188 7.523438 -0.320312 Z M 5.167969 -6.132812 "/></g></g></g><g fill="#f7f8fd" fill-opacity="1"><g transform="translate(110.450852, 35.780287)"><g><path d="M 6.46875 -6.910156 L 5.695312 -6.910156 C 5.621094 -6.910156 5.460938 -6.886719 5.460938 -6.625 L 5.460938 -2.492188 C 5.460938 -2.238281 5.445312 -2.019531 5.417969 -1.863281 C 5.394531 -1.703125 5.34375 -1.578125 5.285156 -1.484375 C 5.21875 -1.402344 5.140625 -1.34375 5.03125 -1.300781 C 4.921875 -1.265625 4.773438 -1.242188 4.597656 -1.242188 L 2.785156 -1.242188 C 2.609375 -1.242188 2.457031 -1.265625 2.347656 -1.300781 C 2.238281 -1.34375 2.164062 -1.402344 2.097656 -1.484375 C 2.039062 -1.578125 1.988281 -1.703125 1.953125 -1.863281 C 1.929688 -2.019531 1.914062 -2.238281 1.914062 -2.492188 L 1.914062 -6.625 C 1.914062 -6.886719 1.753906 -6.910156 1.675781 -6.910156 L 0.914062 -6.910156 C 0.839844 -6.910156 0.671875 -6.886719 0.671875 -6.625 L 0.671875 -2.625 C 0.671875 -2.15625 0.703125 -1.753906 0.78125 -1.425781 C 0.855469 -1.089844 0.980469 -0.8125 1.148438 -0.605469 C 1.308594 -0.386719 1.535156 -0.234375 1.796875 -0.132812 C 2.054688 -0.0429688 2.375 0 2.742188 0 L 4.628906 0 C 5 0 5.316406 -0.0429688 5.578125 -0.132812 C 5.847656 -0.234375 6.0625 -0.386719 6.230469 -0.605469 C 6.398438 -0.8125 6.515625 -1.089844 6.59375 -1.425781 C 6.667969 -1.753906 6.703125 -2.15625 6.703125 -2.625 L 6.703125 -6.625 C 6.703125 -6.886719 6.542969 -6.910156 6.46875 -6.910156 Z M 6.46875 -6.910156 "/></g></g></g><g fill="#f7f8fd" fill-opacity="1"><g transform="translate(117.823558, 35.780287)"><g><path d="M 6.46875 -6.910156 L 0.914062 -6.910156 C 0.839844 -6.910156 0.671875 -6.886719 0.671875 -6.625 L 0.671875 -5.972656 C 0.671875 -5.695312 0.839844 -5.671875 0.914062 -5.671875 L 3.070312 -5.671875 L 3.070312 -0.285156 C 3.070312 -0.0234375 3.238281 0 3.304688 0 L 4.078125 0 C 4.152344 0 4.3125 -0.0234375 4.3125 -0.285156 L 4.3125 -5.671875 L 6.46875 -5.671875 C 6.542969 -5.671875 6.710938 -5.695312 6.710938 -5.972656 L 6.710938 -6.625 C 6.710938 -6.886719 6.542969 -6.910156 6.46875 -6.910156 Z M 6.46875 -6.910156 "/></g></g></g><g fill="#f7f8fd" fill-opacity="1"><g transform="translate(125.204659, 35.780287)"><g><path d="M 6.382812 -6.300781 C 6.214844 -6.507812 5.996094 -6.667969 5.730469 -6.769531 C 5.46875 -6.859375 5.148438 -6.910156 4.78125 -6.910156 L 2.734375 -6.910156 C 2.367188 -6.910156 2.054688 -6.859375 1.796875 -6.769531 C 1.527344 -6.667969 1.308594 -6.507812 1.140625 -6.300781 C 0.980469 -6.089844 0.855469 -5.8125 0.78125 -5.476562 C 0.703125 -5.148438 0.671875 -4.753906 0.671875 -4.285156 L 0.671875 -2.625 C 0.671875 -2.15625 0.703125 -1.753906 0.78125 -1.425781 C 0.855469 -1.089844 0.980469 -0.8125 1.140625 -0.605469 C 1.308594 -0.386719 1.527344 -0.226562 1.796875 -0.132812 C 2.046875 -0.0429688 2.367188 0.0078125 2.734375 0.0078125 L 4.78125 0.0078125 C 5.148438 0.0078125 5.46875 -0.0429688 5.730469 -0.132812 C 5.996094 -0.226562 6.214844 -0.386719 6.382812 -0.59375 C 6.550781 -0.8125 6.667969 -1.089844 6.742188 -1.425781 C 6.8125 -1.753906 6.851562 -2.15625 6.851562 -2.625 L 6.851562 -4.285156 C 6.851562 -4.746094 6.8125 -5.148438 6.742188 -5.476562 C 6.667969 -5.8125 6.550781 -6.089844 6.382812 -6.300781 Z M 5.601562 -4.429688 L 5.601562 -2.472656 C 5.601562 -2.230469 5.59375 -2.019531 5.5625 -1.855469 C 5.535156 -1.703125 5.484375 -1.570312 5.417969 -1.484375 C 5.359375 -1.390625 5.277344 -1.332031 5.167969 -1.300781 C 5.058594 -1.257812 4.914062 -1.242188 4.738281 -1.242188 L 2.777344 -1.242188 C 2.601562 -1.242188 2.457031 -1.257812 2.347656 -1.300781 C 2.238281 -1.332031 2.15625 -1.390625 2.097656 -1.484375 C 2.03125 -1.570312 1.988281 -1.703125 1.953125 -1.855469 C 1.929688 -2.019531 1.914062 -2.230469 1.914062 -2.472656 L 1.914062 -4.429688 C 1.914062 -4.671875 1.929688 -4.882812 1.953125 -5.050781 C 1.988281 -5.207031 2.03125 -5.335938 2.097656 -5.425781 C 2.15625 -5.511719 2.238281 -5.570312 2.347656 -5.609375 C 2.457031 -5.644531 2.601562 -5.671875 2.777344 -5.671875 L 4.738281 -5.671875 C 4.914062 -5.671875 5.058594 -5.644531 5.167969 -5.609375 C 5.277344 -5.570312 5.359375 -5.511719 5.417969 -5.425781 C 5.484375 -5.335938 5.535156 -5.207031 5.5625 -5.050781 C 5.59375 -4.882812 5.601562 -4.671875 5.601562 -4.429688 Z M 5.601562 -4.429688 "/></g></g></g><g fill="#f7f8fd" fill-opacity="1"><g transform="translate(7.495904, 31.771421)"><g><path d="M 3.171875 -1.9375 L 3.601562 -1.9375 C 3.652344 -1.9375 3.699219 -1.980469 3.699219 -2.03125 L 3.699219 -2.425781 C 3.699219 -2.488281 3.671875 -2.546875 3.628906 -2.589844 L 3.0625 -3.171875 C 3.007812 -3.222656 2.953125 -3.246094 2.867188 -3.246094 L 1.035156 -3.246094 C 0.957031 -3.246094 0.90625 -3.226562 0.847656 -3.171875 L 0.269531 -2.589844 C 0.230469 -2.554688 0.191406 -2.488281 0.191406 -2.425781 L 0.191406 -0.789062 C 0.191406 -0.726562 0.230469 -0.664062 0.269531 -0.625 L 0.847656 -0.046875 C 0.90625 0.0117188 0.957031 0.03125 1.035156 0.03125 L 2.867188 0.03125 C 2.953125 0.03125 3.007812 0.0078125 3.0625 -0.046875 L 3.628906 -0.625 C 3.671875 -0.667969 3.699219 -0.726562 3.699219 -0.789062 L 3.699219 -1.183594 C 3.699219 -1.234375 3.652344 -1.28125 3.601562 -1.28125 L 3.171875 -1.28125 C 3.117188 -1.28125 3.074219 -1.234375 3.074219 -1.183594 L 3.074219 -0.957031 C 3.074219 -0.914062 3.066406 -0.882812 3.027344 -0.847656 L 2.824219 -0.65625 C 2.789062 -0.625 2.765625 -0.605469 2.71875 -0.605469 L 1.214844 -0.605469 C 1.183594 -0.605469 1.15625 -0.617188 1.117188 -0.65625 L 0.914062 -0.847656 C 0.882812 -0.882812 0.867188 -0.914062 0.867188 -0.957031 L 0.867188 -2.257812 C 0.867188 -2.300781 0.882812 -2.335938 0.914062 -2.367188 L 1.117188 -2.558594 C 1.15625 -2.597656 1.183594 -2.609375 1.214844 -2.609375 L 2.71875 -2.609375 C 2.765625 -2.609375 2.789062 -2.589844 2.824219 -2.558594 L 3.027344 -2.367188 C 3.066406 -2.335938 3.074219 -2.300781 3.074219 -2.257812 L 3.074219 -2.03125 C 3.074219 -1.980469 3.117188 -1.9375 3.171875 -1.9375 Z M 3.171875 -1.9375 "/></g></g></g><g fill="#f7f8fd" fill-opacity="1"><g transform="translate(12.672747, 31.771421)"><g><path d="M 3.628906 -2.558594 L 3.0625 -3.136719 C 3.007812 -3.191406 2.953125 -3.214844 2.867188 -3.214844 L 1.023438 -3.214844 C 0.9375 -3.214844 0.882812 -3.191406 0.828125 -3.136719 L 0.261719 -2.558594 C 0.21875 -2.515625 0.191406 -2.457031 0.191406 -2.390625 L 0.191406 -0.0976562 C 0.191406 -0.046875 0.238281 0 0.289062 0 L 0.71875 0 C 0.773438 0 0.816406 -0.046875 0.816406 -0.0976562 L 0.816406 -1.054688 L 3.074219 -1.054688 L 3.074219 -0.0976562 C 3.074219 -0.046875 3.117188 0 3.171875 0 L 3.601562 0 C 3.652344 0 3.699219 -0.046875 3.699219 -0.0976562 L 3.699219 -2.390625 C 3.699219 -2.457031 3.671875 -2.515625 3.628906 -2.558594 Z M 0.816406 -1.613281 L 0.816406 -2.226562 C 0.816406 -2.269531 0.828125 -2.300781 0.863281 -2.335938 L 1.066406 -2.527344 L 1.105469 -2.558594 C 1.117188 -2.574219 1.136719 -2.578125 1.171875 -2.578125 L 2.71875 -2.578125 C 2.746094 -2.578125 2.765625 -2.574219 2.785156 -2.558594 L 2.824219 -2.527344 L 3.027344 -2.335938 C 3.0625 -2.300781 3.074219 -2.269531 3.074219 -2.226562 L 3.074219 -1.613281 Z M 0.816406 -1.613281 "/></g></g></g><g fill="#f7f8fd" fill-opacity="1"><g transform="translate(17.849589, 31.771421)"><g><path d="M 3.71875 -2.578125 L 3.136719 -3.144531 C 3.09375 -3.191406 3.035156 -3.214844 2.972656 -3.214844 L 0.289062 -3.214844 C 0.238281 -3.214844 0.191406 -3.171875 0.191406 -3.117188 L 0.191406 -0.0976562 C 0.191406 -0.046875 0.238281 0 0.289062 0 L 0.734375 0 C 0.785156 0 0.828125 -0.046875 0.828125 -0.0976562 L 0.828125 -0.707031 L 2.574219 -0.707031 L 2.972656 -0.0585938 C 2.996094 -0.0195312 3.027344 0 3.066406 0 L 3.550781 0 C 3.628906 0 3.664062 -0.0703125 3.628906 -0.136719 L 3.191406 -0.835938 L 3.71875 -1.363281 C 3.753906 -1.402344 3.792969 -1.464844 3.792969 -1.53125 L 3.792969 -2.386719 C 3.792969 -2.46875 3.769531 -2.527344 3.71875 -2.578125 Z M 0.828125 -2.589844 L 2.765625 -2.589844 C 2.808594 -2.589844 2.84375 -2.578125 2.875 -2.546875 L 3.066406 -2.339844 L 3.101562 -2.300781 C 3.113281 -2.28125 3.117188 -2.261719 3.117188 -2.238281 L 3.117188 -1.699219 C 3.117188 -1.652344 3.105469 -1.621094 3.074219 -1.589844 L 2.867188 -1.394531 C 2.828125 -1.355469 2.804688 -1.34375 2.773438 -1.34375 L 0.828125 -1.34375 Z M 0.828125 -2.589844 "/></g></g></g><g fill="#f7f8fd" fill-opacity="1"><g transform="translate(23.12289, 31.771421)"><g/></g></g><g fill="#f7f8fd" fill-opacity="1"><g transform="translate(26.081082, 31.771421)"><g><path d="M 3.621094 -2.578125 L 3.042969 -3.144531 C 2.996094 -3.191406 2.9375 -3.214844 2.875 -3.214844 L 0.289062 -3.214844 C 0.238281 -3.214844 0.191406 -3.171875 0.191406 -3.117188 L 0.191406 -0.0976562 C 0.191406 -0.046875 0.238281 0 0.289062 0 L 2.855469 0 C 2.933594 0 2.984375 -0.0195312 3.042969 -0.078125 L 3.621094 -0.65625 C 3.660156 -0.695312 3.699219 -0.757812 3.699219 -0.824219 L 3.699219 -2.386719 C 3.699219 -2.46875 3.671875 -2.527344 3.621094 -2.578125 Z M 3.023438 -0.992188 C 3.023438 -0.945312 3.007812 -0.914062 2.976562 -0.882812 L 2.773438 -0.6875 C 2.734375 -0.648438 2.707031 -0.636719 2.675781 -0.636719 L 0.824219 -0.636719 L 0.824219 -2.589844 L 2.667969 -2.589844 C 2.714844 -2.589844 2.746094 -2.578125 2.777344 -2.546875 L 2.972656 -2.339844 L 3.003906 -2.300781 C 3.015625 -2.28125 3.023438 -2.261719 3.023438 -2.238281 Z M 3.023438 -0.992188 "/></g></g></g><g fill="#f7f8fd" fill-opacity="1"><g transform="translate(31.257925, 31.771421)"><g><path d="M 0.914062 -2.335938 L 1.117188 -2.527344 C 1.15625 -2.566406 1.183594 -2.578125 1.214844 -2.578125 L 3.535156 -2.578125 C 3.589844 -2.578125 3.632812 -2.625 3.632812 -2.675781 L 3.632812 -3.117188 C 3.632812 -3.171875 3.589844 -3.214844 3.535156 -3.214844 L 1.003906 -3.214844 C 0.925781 -3.214844 0.875 -3.195312 0.816406 -3.136719 L 0.269531 -2.589844 C 0.230469 -2.554688 0.191406 -2.488281 0.191406 -2.425781 L 0.191406 -0.796875 C 0.191406 -0.714844 0.21875 -0.65625 0.269531 -0.605469 L 0.816406 -0.0703125 C 0.863281 -0.0273438 0.917969 0 0.984375 0 L 3.535156 0 C 3.589844 0 3.632812 -0.046875 3.632812 -0.0976562 L 3.632812 -0.527344 C 3.632812 -0.578125 3.589844 -0.625 3.535156 -0.625 L 1.222656 -0.625 C 1.175781 -0.625 1.144531 -0.636719 1.113281 -0.667969 L 0.886719 -0.914062 C 0.875 -0.933594 0.867188 -0.953125 0.867188 -0.976562 L 0.867188 -1.3125 L 3.222656 -1.3125 C 3.273438 -1.3125 3.316406 -1.355469 3.316406 -1.410156 L 3.316406 -1.851562 C 3.316406 -1.902344 3.273438 -1.949219 3.222656 -1.949219 L 0.867188 -1.949219 L 0.867188 -2.226562 C 0.867188 -2.269531 0.882812 -2.300781 0.914062 -2.335938 Z M 0.914062 -2.335938 "/></g></g></g><g fill="#f7f8fd" fill-opacity="1"><g transform="translate(36.370455, 31.771421)"><g><path d="M 3.628906 -2.558594 L 3.0625 -3.136719 C 3.007812 -3.191406 2.953125 -3.214844 2.867188 -3.214844 L 1.023438 -3.214844 C 0.9375 -3.214844 0.882812 -3.191406 0.828125 -3.136719 L 0.261719 -2.558594 C 0.21875 -2.515625 0.191406 -2.457031 0.191406 -2.390625 L 0.191406 -0.0976562 C 0.191406 -0.046875 0.238281 0 0.289062 0 L 0.71875 0 C 0.773438 0 0.816406 -0.046875 0.816406 -0.0976562 L 0.816406 -1.054688 L 3.074219 -1.054688 L 3.074219 -0.0976562 C 3.074219 -0.046875 3.117188 0 3.171875 0 L 3.601562 0 C 3.652344 0 3.699219 -0.046875 3.699219 -0.0976562 L 3.699219 -2.390625 C 3.699219 -2.457031 3.671875 -2.515625 3.628906 -2.558594 Z M 0.816406 -1.613281 L 0.816406 -2.226562 C 0.816406 -2.269531 0.828125 -2.300781 0.863281 -2.335938 L 1.066406 -2.527344 L 1.105469 -2.558594 C 1.117188 -2.574219 1.136719 -2.578125 1.171875 -2.578125 L 2.71875 -2.578125 C 2.746094 -2.578125 2.765625 -2.574219 2.785156 -2.558594 L 2.824219 -2.527344 L 3.027344 -2.335938 C 3.0625 -2.300781 3.074219 -2.269531 3.074219 -2.226562 L 3.074219 -1.613281 Z M 0.816406 -1.613281 "/></g></g></g><g fill="#f7f8fd" fill-opacity="1"><g transform="translate(41.547298, 31.771421)"><g><path d="M 0.191406 -3.117188 L 0.191406 -0.824219 C 0.191406 -0.757812 0.230469 -0.695312 0.269531 -0.65625 L 0.847656 -0.078125 C 0.90625 -0.0195312 0.957031 0 1.035156 0 L 3.410156 0 C 3.460938 0 3.503906 -0.046875 3.503906 -0.0976562 L 3.503906 -0.539062 C 3.503906 -0.589844 3.460938 -0.636719 3.410156 -0.636719 L 1.246094 -0.636719 C 1.214844 -0.636719 1.191406 -0.648438 1.152344 -0.6875 L 0.914062 -0.914062 C 0.882812 -0.945312 0.867188 -0.976562 0.867188 -1.023438 L 0.867188 -3.117188 C 0.867188 -3.171875 0.824219 -3.214844 0.773438 -3.214844 L 0.289062 -3.214844 C 0.238281 -3.214844 0.191406 -3.171875 0.191406 -3.117188 Z M 0.191406 -3.117188 "/></g></g></g><g fill="#f7f8fd" fill-opacity="1"><g transform="translate(46.531217, 31.771421)"><g><path d="M 0.914062 -2.335938 L 1.117188 -2.527344 C 1.15625 -2.566406 1.183594 -2.578125 1.214844 -2.578125 L 3.535156 -2.578125 C 3.589844 -2.578125 3.632812 -2.625 3.632812 -2.675781 L 3.632812 -3.117188 C 3.632812 -3.171875 3.589844 -3.214844 3.535156 -3.214844 L 1.003906 -3.214844 C 0.925781 -3.214844 0.875 -3.195312 0.816406 -3.136719 L 0.269531 -2.589844 C 0.230469 -2.554688 0.191406 -2.488281 0.191406 -2.425781 L 0.191406 -0.796875 C 0.191406 -0.714844 0.21875 -0.65625 0.269531 -0.605469 L 0.816406 -0.0703125 C 0.863281 -0.0273438 0.917969 0 0.984375 0 L 3.535156 0 C 3.589844 0 3.632812 -0.046875 3.632812 -0.0976562 L 3.632812 -0.527344 C 3.632812 -0.578125 3.589844 -0.625 3.535156 -0.625 L 1.222656 -0.625 C 1.175781 -0.625 1.144531 -0.636719 1.113281 -0.667969 L 0.886719 -0.914062 C 0.875 -0.933594 0.867188 -0.953125 0.867188 -0.976562 L 0.867188 -1.3125 L 3.222656 -1.3125 C 3.273438 -1.3125 3.316406 -1.355469 3.316406 -1.410156 L 3.316406 -1.851562 C 3.316406 -1.902344 3.273438 -1.949219 3.222656 -1.949219 L 0.867188 -1.949219 L 0.867188 -2.226562 C 0.867188 -2.269531 0.882812 -2.300781 0.914062 -2.335938 Z M 0.914062 -2.335938 "/></g></g></g><g fill="#f7f8fd" fill-opacity="1"><g transform="translate(51.643746, 31.771421)"><g><path d="M 3.71875 -2.578125 L 3.136719 -3.144531 C 3.09375 -3.191406 3.035156 -3.214844 2.972656 -3.214844 L 0.289062 -3.214844 C 0.238281 -3.214844 0.191406 -3.171875 0.191406 -3.117188 L 0.191406 -0.0976562 C 0.191406 -0.046875 0.238281 0 0.289062 0 L 0.734375 0 C 0.785156 0 0.828125 -0.046875 0.828125 -0.0976562 L 0.828125 -0.707031 L 2.574219 -0.707031 L 2.972656 -0.0585938 C 2.996094 -0.0195312 3.027344 0 3.066406 0 L 3.550781 0 C 3.628906 0 3.664062 -0.0703125 3.628906 -0.136719 L 3.191406 -0.835938 L 3.71875 -1.363281 C 3.753906 -1.402344 3.792969 -1.464844 3.792969 -1.53125 L 3.792969 -2.386719 C 3.792969 -2.46875 3.769531 -2.527344 3.71875 -2.578125 Z M 0.828125 -2.589844 L 2.765625 -2.589844 C 2.808594 -2.589844 2.84375 -2.578125 2.875 -2.546875 L 3.066406 -2.339844 L 3.101562 -2.300781 C 3.113281 -2.28125 3.117188 -2.261719 3.117188 -2.238281 L 3.117188 -1.699219 C 3.117188 -1.652344 3.105469 -1.621094 3.074219 -1.589844 L 2.867188 -1.394531 C 2.828125 -1.355469 2.804688 -1.34375 2.773438 -1.34375 L 0.828125 -1.34375 Z M 0.828125 -2.589844 "/></g></g></g></svg>